<?xml version="1.0" ?>
<!-- Uploaded to: SVG Repo, www.svgrepo.com, Generator: SVG Repo Mixer Tools -->
<svg width="800px" height="800px" viewBox="0 0 64 64" xmlns="http://www.w3.org/2000/svg">
<defs>
<style>.cls-1{fill:#748a95;}.cls-2{fill:#f0f4f7;}.cls-3{fill:#d0e1e8;}.cls-4{fill:#e0e9ee;}.cls-5{fill:#252b48;}</style>
</defs>
<g id="Locker">
<path class="cls-1" d="M16.91,48.37l-2.54,5.45c-.51,1.09-1,2.18-2.19,2.18A2.17,2.17,0,0,1,10,53.82V46.37l3.69-2.43Z" id="path20636-0-4-3-4-5"/>
<path class="cls-1" d="M47.09,48.37l2.54,5.45c.51,1.09,1,2.18,2.19,2.18A2.17,2.17,0,0,0,54,53.82V46.37L50,43.3Z" id="path20719-2-6-2-9-0"/>
<path class="cls-2" d="M11.36,8A1.36,1.36,0,0,0,10,9.36v39H54v-39A1.36,1.36,0,0,0,52.64,8Z" id="rect30191-6-3-3-1-6-4"/>
<path class="cls-3" d="M17.33,29.58a1.52,1.52,0,0,1,1.52,1.52v3.25a1.52,1.52,0,0,1-3,0V31.1A1.51,1.51,0,0,1,17.33,29.58Z" id="rect211689-3"/>
<path class="cls-3" d="M32,29.58a1.51,1.51,0,0,1,1.51,1.52v3.25a1.51,1.51,0,1,1-3,0V31.1A1.51,1.51,0,0,1,32,29.58Z" id="path212445-0"/>
<path class="cls-3" d="M46.67,29.58a1.51,1.51,0,0,1,1.51,1.52v3.25a1.52,1.52,0,0,1-3,0V31.1A1.52,1.52,0,0,1,46.67,29.58Z" id="path212457-7"/>
<path class="cls-4" d="M49.28,8a1.36,1.36,0,0,1,1.36,1.36v39H54v-39A1.36,1.36,0,0,0,52.64,8Z" id="path240612"/>
<path class="cls-5" d="M9,53.82A3.19,3.19,0,0,0,12.18,57c1.81,0,2.52-1.53,3-2.65l2.33-5h28.9l2.33,5C49.3,55.47,50,57,51.82,57A3.19,3.19,0,0,0,55,53.82V9.36A2.36,2.36,0,0,0,52.64,7H11.36A2.36,2.36,0,0,0,9,9.36Zm4.41-.31c-.53,1.14-.77,1.49-1.23,1.49A1.18,1.18,0,0,1,11,53.82V49.37h4.34Zm12.26-6.14V9H38.33V47.37ZM51.82,55c-.46,0-.7-.35-1.23-1.49l-1.93-4.14H53v4.45A1.18,1.18,0,0,1,51.82,55ZM53,9.36v38H40.33V9H52.64A.36.36,0,0,1,53,9.36Zm-42,0A.36.36,0,0,1,11.36,9H23.67V47.37H11Z"/>
<path class="cls-5" d="M15,13.74h4.77a1,1,0,0,0,0-2H15a1,1,0,0,0,0,2Z"/>
<path class="cls-5" d="M19.72,14.92H15a1,1,0,1,0,0,2h4.77a1,1,0,0,0,0-2Z"/>
<path class="cls-5" d="M19.72,39.45H15a1,1,0,0,0,0,2h4.77a1,1,0,0,0,0-2Z"/>
<path class="cls-5" d="M19.72,42.63H15a1,1,0,1,0,0,2h4.77a1,1,0,0,0,0-2Z"/>
<path class="cls-5" d="M17.33,36.86a2.52,2.52,0,0,0,2.52-2.51V31.1a2.52,2.52,0,1,0-5,0v3.25A2.52,2.52,0,0,0,17.33,36.86Zm-.51-5.76a.52.52,0,1,1,1,0v3.25a.52.52,0,0,1-1,0Z"/>
<path class="cls-5" d="M29.61,13.74h4.78a1,1,0,0,0,0-2H29.61a1,1,0,0,0,0,2Z"/>
<path class="cls-5" d="M34.39,14.92H29.61a1,1,0,1,0,0,2h4.78a1,1,0,0,0,0-2Z"/>
<path class="cls-5" d="M34.39,39.45H29.61a1,1,0,0,0,0,2h4.78a1,1,0,0,0,0-2Z"/>
<path class="cls-5" d="M34.39,42.63H29.61a1,1,0,0,0,0,2h4.78a1,1,0,0,0,0-2Z"/>
<path class="cls-5" d="M32,36.86a2.51,2.51,0,0,0,2.51-2.51V31.1a2.51,2.51,0,1,0-5,0v3.25A2.51,2.51,0,0,0,32,36.86Zm-.51-5.76a.51.51,0,1,1,1,0v3.25a.51.51,0,1,1-1,0Z"/>
<path class="cls-5" d="M44.28,13.74h4.77a1,1,0,0,0,0-2H44.28a1,1,0,0,0,0,2Z"/>
<path class="cls-5" d="M44.28,16.92h4.77a1,1,0,0,0,0-2H44.28a1,1,0,1,0,0,2Z"/>
<path class="cls-5" d="M44.28,41.45h4.77a1,1,0,0,0,0-2H44.28a1,1,0,0,0,0,2Z"/>
<path class="cls-5" d="M49.05,42.63H44.28a1,1,0,0,0,0,2h4.77a1,1,0,0,0,0-2Z"/>
<path class="cls-5" d="M46.67,28.58a2.52,2.52,0,0,0-2.52,2.52v3.25a2.52,2.52,0,0,0,5,0V31.1A2.52,2.52,0,0,0,46.67,28.58Zm.51,5.77a.52.52,0,0,1-1,0V31.1a.52.52,0,1,1,1,0Z"/>
</g>
</svg>